<svg width="206" height="206" viewBox="0 0 206 206" fill="none" xmlns="http://www.w3.org/2000/svg">
<path d="M206 100.75C205.827 106.344 200.95 110.676 195.331 110.676H130.206L176.519 156.964C180.504 160.949 180.504 167.459 176.519 171.445C174.514 173.425 171.89 174.44 169.266 174.44C166.643 174.44 164.019 173.425 162.014 171.445L126.444 135.874C123.572 133.003 121.963 129.117 121.963 125.033V101.963C122.434 97.0616 120.701 92.2595 117.235 88.7693C114.166 85.6999 110.107 83.992 105.799 83.9425H105.75H80.9721C76.9126 83.9425 73.0016 82.3335 70.1303 79.4621L34.56 43.8919C30.5748 39.9067 30.5748 33.4214 34.56 29.4361C38.5453 25.4261 45.0306 25.4261 49.0159 29.4361L95.2299 75.6502V10.6733C95.2299 5.05432 99.5617 0.177958 105.156 0.0046867C110.948 -0.168585 115.725 4.485 115.725 10.2525V75.7244L162.014 29.4361C165.999 25.4261 172.484 25.4261 176.494 29.4361C180.48 33.4214 180.48 39.9067 176.494 43.8919L130.181 90.1802H195.752C201.52 90.1802 206.149 94.9328 205.975 100.75H206Z" fill="#5EFC8D"/>
<path d="M107.755 98.2744C105.75 96.2694 103.101 95.2793 100.478 95.2793C100.478 95.2793 100.478 95.2793 100.453 95.2793H10.6733C5.07907 95.2793 0.177959 99.5863 0.00468685 105.205C-0.168585 110.824 4.485 115.75 10.2277 115.75H75.7987L29.8074 161.741C25.7232 165.826 25.5004 172.732 29.6837 176.717C31.6639 178.598 34.1887 179.539 36.7383 179.539C39.2879 179.539 41.9859 178.549 43.9662 176.544L90.1802 130.33V195.307C90.1802 200.901 94.4873 205.802 100.106 205.975C105.898 206.148 110.651 201.495 110.651 195.752V106.715C110.998 103.695 110.032 100.576 107.73 98.2497L107.755 98.2744Z" fill="#0D41FF"/>
</svg>
