<svg width="265" height="53" viewBox="0 0 265 53" fill="none" xmlns="http://www.w3.org/2000/svg">
<path d="M0.439941 35.55V17.96H8.58994V35.55C8.58994 41.98 12.0099 45.06 17.1499 45.06C22.2899 45.06 25.7099 41.98 25.7099 35.55V17.96H33.8599V35.55C33.8599 46.84 27.1499 52.66 17.1599 52.66C7.16994 52.66 0.459938 46.91 0.459938 35.55H0.439941Z" fill="#00030D"/>
<path d="M40.5499 34.1801C40.5499 22.8901 47.2599 17.0701 57.2499 17.0701C67.2399 17.0701 73.9499 22.8201 73.9499 34.1801V51.7701H65.7999V34.1801C65.7999 27.7501 62.3799 24.6701 57.2399 24.6701C52.0999 24.6701 48.6799 27.7501 48.6799 34.1801V51.7701H40.5299V34.1801H40.5499Z" fill="#00030D"/>
<path d="M80.4999 6.01003C80.4999 2.86003 82.7599 0.530029 85.9099 0.530029C89.0599 0.530029 91.3199 2.86003 91.3199 6.01003C91.3199 9.16003 89.0599 11.42 85.9099 11.42C82.7599 11.42 80.4999 9.16003 80.4999 6.01003ZM81.8299 17.95H89.9799V51.77H81.8299V17.96V17.95Z" fill="#00030D"/>
<path d="M97.85 38.77V5.97998H106V17.96H123.46V25.35H106V38.77C106 43.29 108.33 45.07 111.68 45.07C115.03 45.07 117.36 43.36 117.36 38.77V37.88H125.51V38.77C125.51 48.15 119.9 52.67 111.68 52.67C103.46 52.67 97.85 48.15 97.85 38.77Z" fill="#00030D"/>
<path d="M129.34 34.8601C129.34 24.5901 136.87 17.0601 147.55 17.0601C158.23 17.0601 165.62 24.5901 165.62 34.8601V37.7401H137.9C139 42.6701 142.76 45.2701 147.55 45.2701C151.18 45.2701 153.85 44.2401 155.56 42.0501H164.25C161.72 48.4801 155.56 52.6601 147.55 52.6601C136.87 52.6601 129.34 45.1301 129.34 34.8601ZM157 31.2301C155.7 26.7101 152 24.4501 147.55 24.4501C143.1 24.4501 139.4 26.7801 138.1 31.2301H156.99H157Z" fill="#00030D"/>
<path d="M169.59 35.2101C169.59 24.4601 177.12 17.0701 187.87 17.0701C198.62 17.0701 205.87 24.2601 205.87 35.1401V51.7701H198.41V45.1301C196.36 50.1301 191.77 52.6601 186.43 52.6601C178.22 52.6601 169.59 46.7701 169.59 35.2001V35.2101ZM197.72 34.8701C197.72 28.9101 193.75 24.6701 187.79 24.6701C181.83 24.6701 177.8 28.9101 177.8 34.8701C177.8 40.8301 181.84 45.0701 187.79 45.0701C193.74 45.0701 197.72 40.8301 197.72 34.8701Z" fill="#00030D"/>
<path d="M212.58 32.4701C212.58 21.8601 218.74 17.0701 226.75 17.0701C231.82 17.0701 235.99 19.1901 238.46 23.1601C240.86 19.1901 245.03 17.0701 250.17 17.0701C258.18 17.0701 264.34 21.8601 264.34 32.4701V51.7701H256.19V32.4701C256.19 26.9201 253.31 24.6701 249.34 24.6701C245.37 24.6701 242.56 27.0001 242.56 32.4701V51.7701H234.41V32.4701C234.41 26.9901 231.47 24.6701 227.56 24.6701C223.65 24.6701 220.71 26.9301 220.71 32.4701V51.7701H212.56V32.4701H212.58Z" fill="#00030D"/>
</svg>
